<mxfile host="app.diagrams.net" modified="2021-02-02T03:00:49.949Z" agent="5.0 (Macintosh; Intel Mac OS X 11_1_0) AppleWebKit/537.36 (KHTML, like Gecko) Chrome/88.0.4324.96 Safari/537.36" etag="UA7echnMMNz2rB_wO2Hz" version="14.2.7" type="github">
  <diagram id="xC7v2648ofnARtWQBmom" name="Page-1">
    <mxGraphModel dx="946" dy="614" grid="1" gridSize="10" guides="1" tooltips="1" connect="1" arrows="1" fold="1" page="1" pageScale="1" pageWidth="850" pageHeight="1100" math="0" shadow="0">
      <root>
        <mxCell id="0" />
        <mxCell id="1" parent="0" />
        <mxCell id="IdgxDAqqp9eMmObDDpIW-4" value="TransactionList Screen" style="rounded=0;whiteSpace=wrap;html=1;" parent="1" vertex="1">
          <mxGeometry x="110" y="150" width="120" height="60" as="geometry" />
        </mxCell>
        <mxCell id="IdgxDAqqp9eMmObDDpIW-5" value="TransactionList Bloc" style="ellipse;whiteSpace=wrap;html=1;" parent="1" vertex="1">
          <mxGeometry x="400" y="140" width="120" height="80" as="geometry" />
        </mxCell>
        <mxCell id="IdgxDAqqp9eMmObDDpIW-8" value="" style="endArrow=none;html=1;entryX=0.5;entryY=1;entryDx=0;entryDy=0;" parent="1" target="IdgxDAqqp9eMmObDDpIW-4" edge="1" source="cdgKlogEmkWpYyJFjMh5-16">
          <mxGeometry width="50" height="50" relative="1" as="geometry">
            <mxPoint x="170" y="900" as="sourcePoint" />
            <mxPoint x="700" y="420" as="targetPoint" />
          </mxGeometry>
        </mxCell>
        <mxCell id="IdgxDAqqp9eMmObDDpIW-9" value="" style="endArrow=none;html=1;" parent="1" source="IdgxDAqqp9eMmObDDpIW-13" target="IdgxDAqqp9eMmObDDpIW-5" edge="1">
          <mxGeometry width="50" height="50" relative="1" as="geometry">
            <mxPoint x="459" y="890" as="sourcePoint" />
            <mxPoint x="459" y="220" as="targetPoint" />
          </mxGeometry>
        </mxCell>
        <mxCell id="cdgKlogEmkWpYyJFjMh5-1" value="Fiat" style="ellipse;whiteSpace=wrap;html=1;" vertex="1" parent="1">
          <mxGeometry x="710" y="140" width="120" height="80" as="geometry" />
        </mxCell>
        <mxCell id="cdgKlogEmkWpYyJFjMh5-2" value="" style="endArrow=none;dashed=1;html=1;entryX=0.5;entryY=1;entryDx=0;entryDy=0;" edge="1" parent="1">
          <mxGeometry width="50" height="50" relative="1" as="geometry">
            <mxPoint x="769" y="960" as="sourcePoint" />
            <mxPoint x="769" y="220" as="targetPoint" />
          </mxGeometry>
        </mxCell>
        <mxCell id="cdgKlogEmkWpYyJFjMh5-14" value="" style="endArrow=classic;html=1;" edge="1" parent="1">
          <mxGeometry relative="1" as="geometry">
            <mxPoint x="760" y="270" as="sourcePoint" />
            <mxPoint x="170" y="270" as="targetPoint" />
          </mxGeometry>
        </mxCell>
        <mxCell id="cdgKlogEmkWpYyJFjMh5-15" value="FiatLoaded" style="edgeLabel;resizable=0;html=1;align=center;verticalAlign=middle;" connectable="0" vertex="1" parent="cdgKlogEmkWpYyJFjMh5-14">
          <mxGeometry relative="1" as="geometry" />
        </mxCell>
        <mxCell id="IdgxDAqqp9eMmObDDpIW-13" value="" style="html=1;points=[];perimeter=orthogonalPerimeter;" parent="1" vertex="1">
          <mxGeometry x="455" y="350" width="10" height="470" as="geometry" />
        </mxCell>
        <mxCell id="IdgxDAqqp9eMmObDDpIW-15" value="GetTransactionList(&amp;lt;Currency&amp;gt;)" style="html=1;verticalAlign=bottom;endArrow=block;entryX=-0.153;entryY=0.004;entryDx=0;entryDy=0;entryPerimeter=0;" parent="1" target="IdgxDAqqp9eMmObDDpIW-13" edge="1">
          <mxGeometry x="170" y="350" width="80" as="geometry">
            <mxPoint x="170" y="350" as="sourcePoint" />
            <mxPoint x="250" y="350" as="targetPoint" />
          </mxGeometry>
        </mxCell>
        <mxCell id="cdgKlogEmkWpYyJFjMh5-3" value="Listener" style="whiteSpace=wrap;html=1;shape=mxgraph.basic.cloud_rect" vertex="1" parent="1">
          <mxGeometry x="550" y="390" width="150" height="50" as="geometry" />
        </mxCell>
        <mxCell id="cdgKlogEmkWpYyJFjMh5-4" value="" style="endArrow=classic;html=1;entryX=0.42;entryY=-0.02;entryDx=0;entryDy=0;entryPerimeter=0;edgeStyle=orthogonalEdgeStyle;curved=1;" edge="1" parent="1">
          <mxGeometry x="170" y="350" width="50" height="50" as="geometry">
            <mxPoint x="465" y="360" as="sourcePoint" />
            <mxPoint x="578" y="389" as="targetPoint" />
          </mxGeometry>
        </mxCell>
        <mxCell id="IdgxDAqqp9eMmObDDpIW-14" value="" style="endArrow=none;html=1;" parent="1" target="IdgxDAqqp9eMmObDDpIW-13" edge="1">
          <mxGeometry x="170" y="350" width="50" height="50" as="geometry">
            <mxPoint x="460" y="900" as="sourcePoint" />
            <mxPoint x="290" y="-30" as="targetPoint" />
          </mxGeometry>
        </mxCell>
        <mxCell id="IdgxDAqqp9eMmObDDpIW-16" value="UpdateTransactionList(&amp;lt;List&amp;lt;CurrencyTransactions&amp;gt;&amp;gt;)" style="html=1;verticalAlign=bottom;endArrow=block;" parent="1" edge="1">
          <mxGeometry x="170" y="580" width="80" as="geometry">
            <mxPoint x="451" y="551" as="sourcePoint" />
            <mxPoint x="170" y="551" as="targetPoint" />
          </mxGeometry>
        </mxCell>
        <mxCell id="cdgKlogEmkWpYyJFjMh5-5" value="" style="endArrow=classic;html=1;exitX=0.5;exitY=1.04;exitDx=0;exitDy=0;exitPerimeter=0;edgeStyle=orthogonalEdgeStyle;curved=1;" edge="1" parent="1">
          <mxGeometry x="180" y="430" as="geometry">
            <mxPoint x="590" y="440" as="sourcePoint" />
            <mxPoint x="465" y="508" as="targetPoint" />
            <Array as="points">
              <mxPoint x="590" y="508" />
            </Array>
          </mxGeometry>
        </mxCell>
        <mxCell id="cdgKlogEmkWpYyJFjMh5-6" value="UpdateTransanctionList" style="edgeLabel;resizable=0;html=1;align=center;verticalAlign=middle;" connectable="0" vertex="1" parent="cdgKlogEmkWpYyJFjMh5-5">
          <mxGeometry relative="1" as="geometry">
            <mxPoint x="-16" y="10" as="offset" />
          </mxGeometry>
        </mxCell>
        <mxCell id="cdgKlogEmkWpYyJFjMh5-11" value="" style="endArrow=classic;html=1;edgeStyle=orthogonalEdgeStyle;curved=1;" edge="1" parent="1" source="cdgKlogEmkWpYyJFjMh5-3">
          <mxGeometry x="180" y="530" as="geometry">
            <mxPoint x="590" y="540" as="sourcePoint" />
            <mxPoint x="465" y="608" as="targetPoint" />
            <Array as="points">
              <mxPoint x="590" y="608" />
            </Array>
          </mxGeometry>
        </mxCell>
        <mxCell id="cdgKlogEmkWpYyJFjMh5-12" value="UpdateCurrencyList" style="edgeLabel;resizable=0;html=1;align=center;verticalAlign=middle;" connectable="0" vertex="1" parent="cdgKlogEmkWpYyJFjMh5-11">
          <mxGeometry relative="1" as="geometry">
            <mxPoint x="-16" y="32.94" as="offset" />
          </mxGeometry>
        </mxCell>
        <mxCell id="IdgxDAqqp9eMmObDDpIW-22" value="&lt;br&gt;&amp;nbsp;UpdateCurrencyList(&amp;lt;List&amp;lt;CurrencyTransactions&amp;gt;&amp;gt;)" style="html=1;verticalAlign=bottom;endArrow=block;" parent="1" edge="1">
          <mxGeometry x="170" y="850" width="80" as="geometry">
            <mxPoint x="450" y="650" as="sourcePoint" />
            <mxPoint x="170" y="650" as="targetPoint" />
          </mxGeometry>
        </mxCell>
        <mxCell id="IdgxDAqqp9eMmObDDpIW-28" value="&lt;span style=&quot;text-align: center&quot;&gt;dispatch&lt;/span&gt;&lt;br style=&quot;text-align: center&quot;&gt;&lt;span style=&quot;text-align: center&quot;&gt;GetTransactionList(Currency)&lt;/span&gt;" style="edgeStyle=orthogonalEdgeStyle;html=1;align=left;spacingLeft=2;endArrow=block;rounded=0;entryX=1;entryY=0;" parent="1" edge="1">
          <mxGeometry y="-140" as="geometry">
            <mxPoint x="465" y="700" as="sourcePoint" />
            <Array as="points">
              <mxPoint x="490" y="700" />
            </Array>
            <mxPoint x="470" y="720" as="targetPoint" />
            <mxPoint x="33" as="offset" />
          </mxGeometry>
        </mxCell>
        <mxCell id="IdgxDAqqp9eMmObDDpIW-29" value="&amp;nbsp;UpdateTransactionList(&amp;lt;List&amp;lt;CurrencyTransactions&amp;gt;&amp;gt;)" style="html=1;verticalAlign=bottom;endArrow=block;exitX=-0.217;exitY=0.98;exitDx=0;exitDy=0;exitPerimeter=0;" parent="1" source="IdgxDAqqp9eMmObDDpIW-13" edge="1">
          <mxGeometry x="170" y="850" width="80" as="geometry">
            <mxPoint x="461.3299999999999" y="860.3199999999999" as="sourcePoint" />
            <mxPoint x="170" y="811" as="targetPoint" />
          </mxGeometry>
        </mxCell>
        <mxCell id="cdgKlogEmkWpYyJFjMh5-16" value="" style="html=1;points=[];perimeter=orthogonalPerimeter;" vertex="1" parent="1">
          <mxGeometry x="165" y="350" width="10" height="470" as="geometry" />
        </mxCell>
        <mxCell id="cdgKlogEmkWpYyJFjMh5-17" value="" style="endArrow=none;html=1;entryX=0.5;entryY=1;entryDx=0;entryDy=0;" edge="1" parent="1" target="cdgKlogEmkWpYyJFjMh5-16">
          <mxGeometry width="50" height="50" relative="1" as="geometry">
            <mxPoint x="170.00000000000023" y="900" as="sourcePoint" />
            <mxPoint x="169.99999999999977" y="210" as="targetPoint" />
          </mxGeometry>
        </mxCell>
      </root>
    </mxGraphModel>
  </diagram>
</mxfile>
